<svg width="19" height="19" viewBox="0 0 19 19" fill="none" xmlns="http://www.w3.org/2000/svg">
<path d="M15.4204 15H11.1975C10.8938 15 10.6454 14.7509 10.6454 14.4465V11.8175C10.6454 11.1533 10.121 10.6275 9.4586 10.6275C8.79618 10.6275 8.27176 11.1533 8.27176 11.8175V14.4465C8.27176 14.7509 8.02336 15 7.71975 15H3.55202C3.24841 15 3 14.7509 3 14.4465V7.36189C3 6.86376 3.24841 6.39329 3.63482 6.11655L9.18259 2.10378C9.3758 1.96541 9.6242 1.96541 9.81741 2.10378L15.3652 6.11655C15.7516 6.39329 16 6.86376 16 7.36189V14.4742C15.9724 14.7509 15.724 15 15.4204 15Z" fill="white"/>
</svg>
