<svg width="14" height="13" viewBox="0 0 14 13" fill="none" xmlns="http://www.w3.org/2000/svg">
<path d="M13.6529 11.1089L10.3613 8.03159C10.9222 7.19706 11.2191 6.23108 11.2175 5.24537C11.2175 2.34858 8.70561 0 5.60861 0C2.51162 0 0 2.34909 0 5.24537C0 8.14164 2.51189 10.4905 5.60861 10.4905C6.71087 10.4922 7.78897 10.1886 8.70697 9.618L11.9776 12.6756C12.1998 12.8833 12.5011 13 12.8153 13C13.1294 13 13.4307 12.8833 13.6529 12.6756C13.763 12.5728 13.8503 12.4507 13.9098 12.3162C13.9693 12.1818 14 12.0378 14 11.8923C14 11.7468 13.9693 11.6027 13.9098 11.4683C13.8503 11.3339 13.763 11.2118 13.6529 11.1089ZM5.60752 8.60891C4.89594 8.60871 4.20039 8.41118 3.60884 8.04132C3.01729 7.67145 2.5563 7.14586 2.28415 6.53098C2.012 5.91611 1.94092 5.23958 2.07989 4.58693C2.21887 3.93428 2.56166 3.33482 3.06492 2.86435C3.56818 2.39389 4.20931 2.07354 4.90724 1.94382C5.60518 1.8141 6.32857 1.88083 6.98595 2.13558C7.64333 2.39032 8.20518 2.82164 8.60046 3.37499C8.99573 3.92834 9.20668 4.57888 9.20662 5.24435C9.20662 5.68629 9.11352 6.12391 8.93263 6.5322C8.75174 6.94049 8.48661 7.31146 8.15239 7.6239C7.81816 7.93635 7.42139 8.18415 6.98473 8.35316C6.54808 8.52217 6.0801 8.60907 5.60752 8.60891Z" fill="white"/>
</svg>
