<svg width="21" height="17" viewBox="0 0 21 17" fill="none" xmlns="http://www.w3.org/2000/svg">
<path d="M17.8844 0.508392H2.84586C1.52271 0.508392 0 1.66659 0 2.78297V11.7636C0 12.7917 1.29014 13.5342 2.52764 13.6488L1.72229 16.6612L6.88286 13.6697H17.8844C19.2076 13.6697 20.4286 12.8792 20.4286 11.7636V4.49781V2.78297C20.4286 1.66659 19.2068 0.508392 17.8844 0.508392ZM5.14014 8.0893C4.38979 8.0893 3.78164 7.49007 3.78164 6.75072C3.78164 6.01136 4.38979 5.41214 5.14014 5.41214C5.88971 5.41214 6.49864 6.01136 6.49864 6.75072C6.49864 7.49007 5.88971 8.0893 5.14014 8.0893ZM10.2143 8.0893C9.46393 8.0893 8.85579 7.49007 8.85579 6.75072C8.85579 6.01136 9.46393 5.41214 10.2143 5.41214C10.9646 5.41214 11.5728 6.01136 11.5728 6.75072C11.5728 7.49007 10.9646 8.0893 10.2143 8.0893ZM15.2892 8.0893C14.5389 8.0893 13.9299 7.49007 13.9299 6.75072C13.9299 6.01136 14.5389 5.41214 15.2892 5.41214C16.038 5.41214 16.6477 6.01136 16.6477 6.75072C16.6477 7.49007 16.038 8.0893 15.2892 8.0893Z" fill="white"/>
</svg>
