<svg width="164" height="48" viewBox="0 0 164 48" fill="none" xmlns="http://www.w3.org/2000/svg">
<path d="M31.3407 17.3271C34.4262 19.5414 38.2061 20.8443 42.2886 20.8443V12.9573C41.5159 12.9575 40.7453 12.8766 39.9894 12.7158V18.924C35.9073 18.924 32.1279 17.6211 29.0416 15.4069V31.5019C29.0416 39.5534 22.5403 46.08 14.5211 46.08C11.5289 46.08 8.74777 45.1719 6.4375 43.6143C9.07429 46.321 12.7515 48.0002 16.8197 48.0002C24.8394 48.0002 31.3411 41.4736 31.3411 33.4217V17.3271H31.3407ZM34.177 9.37007C32.6001 7.64053 31.5648 5.40542 31.3407 2.93441V1.91998H29.162C29.7104 5.06063 31.581 7.74382 34.177 9.37007ZM11.5097 37.4358C10.6287 36.2761 10.1526 34.8574 10.1547 33.3987C10.1547 29.7162 13.1284 26.7304 16.7971 26.7304C17.4808 26.7302 18.1604 26.8353 18.812 27.0429V18.9797C18.0505 18.8749 17.282 18.8304 16.5138 18.8467V25.1228C15.8618 24.9152 15.1818 24.8098 14.4979 24.8104C10.8293 24.8104 7.85577 27.7959 7.85577 31.4788C7.85577 34.083 9.3421 36.3375 11.5097 37.4358Z" fill="#FF004F"/>
<path d="M29.0416 15.4067C32.1279 17.6209 35.9073 18.9238 39.9894 18.9238V12.7157C37.7108 12.2284 35.6936 11.0329 34.1769 9.37007C31.5808 7.74366 29.7104 5.06047 29.162 1.91998H23.439V33.4214C23.4261 37.0938 20.4575 40.0674 16.7967 40.0674C14.6395 40.0674 12.723 39.035 11.5092 37.4358C9.34177 36.3375 7.85543 34.0828 7.85543 31.479C7.85543 27.7964 10.8289 24.8106 14.4976 24.8106C15.2005 24.8106 15.878 24.9205 16.5135 25.1229V18.8469C8.63509 19.0103 2.29895 25.4731 2.29895 33.4216C2.29895 37.3893 3.87679 40.9863 6.43765 43.6145C8.74792 45.1719 11.529 46.0802 14.5212 46.0802C22.5407 46.0802 29.0418 39.5533 29.0418 31.5019V15.4067H29.0416Z" fill="white"/>
<path d="M39.9894 12.7156V11.037C37.9347 11.0401 35.9203 10.4624 34.1769 9.3699C35.7202 11.0662 37.7523 12.2358 39.9894 12.7156ZM29.162 1.91997C29.1097 1.61983 29.0695 1.31771 29.0416 1.01443V0H21.1398V31.5017C21.1271 35.1737 18.1587 38.1473 14.4976 38.1473C13.4227 38.1473 12.4079 37.8911 11.5092 37.4359C12.723 39.035 14.6395 40.0672 16.7967 40.0672C20.4572 40.0672 23.4263 37.094 23.439 33.4215V1.91997H29.162ZM16.5138 18.8469V17.0598C15.8536 16.9692 15.1879 16.9238 14.5214 16.9241C6.50129 16.9239 0 23.4509 0 31.5017C0 36.5492 2.55512 40.9975 6.43782 43.6141C3.87696 40.9861 2.29912 37.389 2.29912 33.4214C2.29912 25.4731 8.63509 19.0103 16.5138 18.8469Z" fill="#00F2EA"/>
<path d="M131.549 39.48C137.287 39.48 141.939 34.845 141.939 29.1281C141.939 23.4113 137.287 18.7755 131.549 18.7755H129.983C135.722 18.7755 140.373 23.4112 140.373 29.1281C140.373 34.845 135.722 39.48 129.983 39.48H131.549Z" fill="#FF004F"/>
<path d="M129.841 18.7755H128.276C122.538 18.7755 117.885 23.4112 117.885 29.1281C117.885 34.845 122.538 39.48 128.276 39.48H129.841C124.103 39.48 119.451 34.845 119.451 29.1281C119.451 23.4113 124.103 18.7755 129.841 18.7755Z" fill="#00F2EA"/>
<path d="M50.8502 14.0966V19.3439H56.9692V39.3383H63.0906V19.4856H68.0716L69.7795 14.0968L50.8502 14.0966ZM100.949 14.0966V19.3439H107.068V39.3383H113.19V19.4856H118.171L119.878 14.0968L100.949 14.0966ZM70.9192 17.0743C70.9192 15.4301 72.2551 14.0966 73.9056 14.0966C75.5576 14.0966 76.895 15.4301 76.895 17.0743C76.895 18.7187 75.5584 20.0522 73.9056 20.0522C72.2551 20.0514 70.9192 18.7187 70.9192 17.0743ZM70.9192 22.1799H76.895V39.3383H70.9192V22.1799ZM79.4573 14.0966V39.3381H85.4355V32.8157L87.2859 31.1125L93.1205 39.4798H99.5247L91.1268 27.2846L98.6703 19.9097H91.412L85.4355 25.8654V14.0966H79.4573ZM143.93 14.0966V39.3381H149.909V32.8157L151.759 31.1125L157.595 39.4798H164L155.602 27.2846L163.145 19.9097H155.887L149.909 25.8654V14.0966H143.93Z" fill="white"/>
<path d="M129.983 39.48C135.721 39.48 140.373 34.845 140.373 29.1281C140.373 23.4113 135.721 18.7755 129.983 18.7755H129.841C124.103 18.7755 119.451 23.4112 119.451 29.1281C119.451 34.845 124.103 39.48 129.841 39.48H129.983ZM124.859 29.1281C124.859 26.3472 127.122 24.0946 129.913 24.0946C132.702 24.0946 134.965 26.3472 134.965 29.1281C134.965 31.909 132.702 34.1628 129.913 34.1628C127.122 34.1623 124.859 31.909 124.859 29.1281Z" fill="white"/>
</svg>
