<svg width="31" height="36" viewBox="0 0 31 36" fill="none" xmlns="http://www.w3.org/2000/svg">
<path fill-rule="evenodd" clip-rule="evenodd" d="M8.97768 14.1265C15.7243 11.8216 16.8727 5.81752 16.0114 0.297198C16.0114 0.0980112 16.1837 -0.0442652 16.3559 0.0126454C22.8155 3.14273 30.0788 9.972 30.0788 20.2159C30.0788 28.0696 23.9351 35.0126 15.0066 35.0126C11.8206 35.1562 8.67716 34.2441 6.07231 32.4203C3.46746 30.5964 1.54958 27.9647 0.621389 24.9405C-0.306803 21.9163 -0.192452 18.6718 0.946395 15.7191C2.08524 12.7665 4.18373 10.2738 6.91063 8.6346C7.08289 8.52077 7.31256 8.6346 7.31256 8.83378C7.39869 9.88663 7.68578 12.533 8.86285 14.1265H8.97768Z" fill="url(#paint0_linear_2_46)"/>
<defs>
<linearGradient id="paint0_linear_2_46" x1="30.0788" y1="0" x2="-4.54612" y2="29.7333" gradientUnits="userSpaceOnUse">
<stop stop-color="#FF7854"/>
<stop offset="1" stop-color="#FD267D"/>
</linearGradient>
</defs>
</svg>
