<svg width="32" height="31" viewBox="0 0 32 31" fill="none" xmlns="http://www.w3.org/2000/svg">
<rect width="10" height="10" fill="#7F848C"/>
<rect y="13" width="10" height="10" fill="#7F848C"/>
<rect x="13" width="10" height="10" fill="#7F848C"/>
<path d="M25.4181 27.3378L25.418 27.3377L21.2506 23.1717C19.9989 23.9147 18.5675 24.3077 17.1068 24.3054M25.4181 27.3378L25.2375 16.1752C25.2373 11.6853 21.5963 8.04529 17.1072 8.04529C12.6179 8.04529 8.97732 11.6863 8.97732 16.1755C8.97732 20.6647 12.6181 24.3052 17.1068 24.3054M25.4181 27.3378C25.8141 27.7336 26.3511 27.9559 26.9111 27.9559C27.471 27.9559 28.008 27.7336 28.4041 27.3378L28.4041 27.3377C28.6002 27.1417 28.7558 26.9089 28.862 26.6527C28.9681 26.3965 29.0227 26.1219 29.0227 25.8446C29.0227 25.5673 28.9681 25.2927 28.862 25.0364C28.7558 24.7802 28.6002 24.5475 28.4041 24.3514L24.201 20.1498C24.8813 18.9381 25.2394 17.5696 25.2375 16.1755L25.4181 27.3378ZM17.1068 24.3054C17.1067 24.3054 17.1065 24.3054 17.1064 24.3054L17.1072 23.8054V24.3054C17.1071 24.3054 17.1069 24.3054 17.1068 24.3054ZM17.1059 20.5684H17.1059C16.2367 20.5681 15.3872 20.3101 14.6646 19.8271C13.9421 19.344 13.379 18.6575 13.0466 17.8545C12.7142 17.0514 12.6274 16.1678 12.7971 15.3154C12.9669 14.463 13.3856 13.68 14.0003 13.0656C14.615 12.4511 15.3981 12.0327 16.2505 11.8633C17.103 11.6939 17.9866 11.781 18.7895 12.1138C19.5925 12.4465 20.2787 13.0098 20.7615 13.7325C21.2443 14.4552 21.502 15.3049 21.5019 16.174V16.1741C21.5019 16.7513 21.3882 17.3228 21.1672 17.8561C20.9463 18.3893 20.6225 18.8738 20.2142 19.2819C19.806 19.69 19.3214 20.0136 18.7881 20.2344C18.2547 20.4551 17.6831 20.5686 17.1059 20.5684Z" fill="#7F848C" stroke="white"/>
</svg>
