<svg width="32" height="26" viewBox="0 0 32 26" fill="none" xmlns="http://www.w3.org/2000/svg">
<g clip-path="url(#clip0_101_2)">
<path d="M3.78552 24.446H1.94327L3.24593 23.1433C3.94831 22.441 4.38692 21.5274 4.50484 20.5364C1.49698 18.5625 0 15.7029 0 12.7051C0 7.17446 5.08319 1.55402 13.0441 1.55402C21.4777 1.55402 26 6.72587 26 12.2206C26 17.7515 21.4299 22.9199 13.0441 22.9199C11.575 22.9199 10.0422 22.7238 8.67357 22.3639C7.37803 23.6927 5.62268 24.446 3.78552 24.446Z" fill="#7F848C"/>
</g>
<g clip-path="url(#clip1_101_2)">
<path d="M29.4567 23.9292L30.3102 24.7828H29.1031H28.2528C27.3645 24.7828 26.5148 24.4545 25.8507 23.8719C25.2503 24.0065 24.6035 24.0784 23.9797 24.0784C19.881 24.0784 17.5 21.5147 17.5 18.6402C17.5 15.7829 19.8586 13.2172 23.9797 13.2172C27.8927 13.2172 30.5 15.9992 30.5 18.8639C30.5 20.3285 29.8108 21.7117 28.4769 22.6999C28.5504 22.937 28.6792 23.1518 28.8554 23.328L29.4567 23.9292Z" fill="#7F848C" stroke="white"/>
</g>
<defs>
<clipPath id="clip0_101_2">
<rect width="26" height="26" fill="white"/>
</clipPath>
<clipPath id="clip1_101_2">
<rect width="16" height="13" fill="white" transform="matrix(-1 0 0 1 32 12)"/>
</clipPath>
</defs>
</svg>
