<svg width="86" height="22" viewBox="0 0 86 22" fill="none" xmlns="http://www.w3.org/2000/svg">
<path d="M27.3397 5.46399C28.4713 4.36479 29.173 4.33119 29.173 4.33119C29.4333 4.32892 29.6912 4.38127 29.9296 4.48479C30.4655 4.66879 30.4954 4.95839 30.4954 4.95839V13.0144C30.5649 15.2672 29.9975 16.132 29.3201 16.7344C29.1145 16.919 28.8593 17.0407 28.5853 17.0848C28.564 17.0901 28.5417 17.0905 28.5202 17.0862C28.4986 17.0817 28.4783 17.0726 28.4609 17.0594C28.4434 17.0462 28.4291 17.0292 28.4192 17.0098C28.4093 16.9903 28.4039 16.969 28.4034 16.9472C28.4147 16.7915 28.4484 16.6382 28.5037 16.492C28.8456 15.6224 28.8173 14.128 28.8173 14.128L28.8496 5.45599C28.8496 5.45599 28.8763 5.29599 28.7397 5.36159C27.4043 6.49759 27.2362 8.10239 27.1934 8.87999C27.1715 10.0456 27.6719 10.648 27.6719 10.648C27.7104 10.6834 27.7406 10.7268 27.7605 10.775C27.7803 10.8233 27.7892 10.8752 27.7867 10.9272C27.7893 10.9549 27.7857 10.9829 27.7761 11.0091C27.7666 11.0354 27.7513 11.0592 27.7314 11.0789C27.7115 11.0986 27.6874 11.1137 27.6609 11.1232C27.6344 11.1326 27.6062 11.1362 27.5781 11.1336C27.0753 11.0856 26.2735 10.5256 25.9889 9.84559C25.8394 9.51749 25.7581 9.16301 25.7497 8.80319C25.8761 7.54124 26.4402 6.36158 27.3461 5.46479L27.3397 5.46399ZM85.6528 13.1544C85.6528 15.7416 84.0685 15.7008 84.0685 15.7008C82.5602 15.7528 82.1754 14.1776 82.0816 12.576C82.0089 11.3704 82.0816 10.0296 82.0816 10.0296C82.0816 10.0296 82.0816 9.96799 82.0291 10.0296C81.5239 10.9336 81.1819 12.3096 81.0138 13.372C80.9399 13.8427 80.8951 14.3175 80.8796 14.7936C80.8874 14.8387 80.8819 14.885 80.8637 14.927C80.8455 14.969 80.8154 15.0049 80.777 15.0304C79.9581 15.4024 79.4319 14.8744 79.2452 14.284C79.0059 13.724 78.8523 10.3608 78.8523 10.1856C78.8523 10.0104 78.7109 10.1312 78.7109 10.1312C77.576 11.9952 77.5663 14.7584 77.5663 15.3128C77.5663 15.8672 76.6084 15.6968 76.6084 15.6968C75.7896 15.6352 75.8211 15.2408 75.8211 15.2408L75.7831 14.5728C75.4986 15.0928 74.9715 15.7568 74.1583 15.712C72.9281 15.6336 72.6912 14.3736 72.671 14.16C72.671 14.16 72.0583 15.728 70.3753 15.712C69.2307 15.6928 68.7716 14.528 68.7716 14.528C68.7716 14.528 68.3109 15.752 67.1873 15.712C66.0637 15.672 65.1341 14.384 65.2052 12.7152C65.2204 11.8703 65.3346 11.03 65.5455 10.2112C65.5455 10.2112 65.6369 10.0512 65.4833 10.0336C65.3297 10.016 64.3581 10.0496 64.3581 10.0496C64.3581 10.0496 63.8084 12.2312 61.4853 14.944L61.5015 16.736C61.5015 18.52 61.2767 20.912 58.834 21.1072C56.7226 20.9648 56.8422 19.3552 56.8422 19.3552C56.7921 18.8816 57.0928 18.0096 58.3538 16.8392L60.116 15.2184L60.0659 14.4696C59.2591 15.7896 58.0264 15.716 58.0264 15.716C58.0264 15.716 57.0686 15.908 56.2723 14.5056C56.0331 14.9792 55.5012 15.8064 54.6258 15.7112C53.3955 15.5752 53.1514 14.3632 53.132 14.1472C53.132 14.1472 52.5176 15.7296 50.8242 15.7112C49.6763 15.692 49.2132 14.5152 49.2132 14.5152C49.0855 14.2553 48.9884 13.9818 48.9238 13.7L48.8737 13.8472C48.6126 14.508 47.9683 15.6568 46.9781 15.6712C45.1594 15.6712 45.0826 12.8808 45.0826 12.8808C44.5515 14.1288 43.5241 15.7048 41.6092 15.6952C39.6942 15.6856 39.455 15.0008 39.455 14.9016C39.4485 14.8066 39.4617 14.7114 39.4938 14.6217C39.5259 14.5319 39.5762 14.4497 39.6417 14.38C39.8616 14.0648 40.0459 13.9344 40.2075 13.9344C40.3673 13.9786 40.5141 14.0597 40.6359 14.1712C40.8779 14.4004 41.1909 14.5422 41.5243 14.5736C42.1273 14.552 42.2599 14.0736 42.3019 13.5856C42.344 13.0976 41.9948 12.576 41.5122 12.1408L40.6602 11.3712L39.0613 13.9776C38.1301 15.4776 37.2062 15.7096 36.8497 15.6624C36.3647 15.596 35.8918 15.0984 35.8635 13.6416L35.9735 9.56959C35.9735 9.43919 35.8538 9.50319 35.8538 9.50319C34.0133 11.436 33.4612 15.412 33.4612 15.4896C33.4292 15.5461 33.3808 15.5918 33.3223 15.6209C33.2638 15.65 33.1979 15.6611 33.133 15.6528C32.9681 15.6528 33.188 15.6528 32.53 15.6208C31.872 15.5888 31.9173 14.3672 31.9173 14.3672L31.9601 8.44479C31.9601 8.24799 32.1565 8.16319 32.7814 8.32639C33.4062 8.48959 33.3844 8.68159 33.3844 8.68159L33.3626 12.1216C34.9736 7.41919 36.1893 8.15599 36.9249 8.51599C37.6605 8.87599 37.5497 9.39279 37.5497 9.39279L37.4398 12.8888C37.4075 13.8008 37.5368 14.1584 37.747 14.1928C38.2691 14.316 40.1024 10.8144 40.1024 10.8144C39.2909 9.94479 39.7338 8.88319 40.366 8.42399C40.6501 8.22906 40.9798 8.10926 41.3238 8.07599C41.3238 8.07599 42.1451 8.03359 42.1241 8.71839C42.1459 9.46719 41.3028 10.3768 41.3028 10.3768C42.9357 11.5288 43.6955 12.1368 43.8232 13.028C43.8596 13.2633 43.8433 13.5036 43.7755 13.732C44.9363 12.732 45.0252 11.6144 45.0252 11.6144L45.0446 7.87599L43.3228 7.85439C43.3228 7.85439 43.1911 7.85439 43.1612 7.52639C43.1496 7.3707 43.1721 7.21437 43.2271 7.06804C43.282 6.92172 43.3682 6.78882 43.4797 6.67839L45.1222 6.69999L45.1869 4.74559C45.2418 4.35359 45.494 4.29999 46.2159 4.48479C46.9377 4.66959 46.9337 4.83279 46.9337 4.83279L46.8528 6.79919L48.902 6.90799C49.1445 6.92959 49.2204 6.98799 49.1655 7.38799C49.1633 7.48946 49.1349 7.58869 49.0829 7.67621C49.031 7.76374 48.9573 7.83665 48.8688 7.88799L46.8318 7.93039L46.6904 12.2664C46.6904 12.9384 46.7227 14.5264 47.358 14.5064C48.2472 14.5488 48.7702 12.5824 48.7702 12.5824V12.5664C48.7585 12.2035 48.772 11.8402 48.8106 11.4792C48.9779 9.89919 49.6998 8.04879 51.3245 8.04879C51.6409 8.05561 51.9494 8.14743 52.2171 8.31442C52.4848 8.4814 52.7015 8.71727 52.8442 8.99679L52.8709 8.64159C52.8709 8.64159 52.8353 8.21279 53.5216 8.31919C54.2079 8.42559 54.4431 8.69359 54.4269 8.90879L54.372 13.2872C54.4633 14.2352 54.6282 14.7896 55.114 14.7512C55.5327 14.6896 55.8318 14.1232 56.0096 13.6424C55.4018 8.63919 58.1638 8.03199 58.1638 8.03199C58.1638 8.03199 59.3893 7.95199 59.947 8.95359L59.9632 8.61759C59.9632 8.61759 59.9082 8.17439 60.5565 8.29759C60.7468 8.32644 60.9336 8.37415 61.1143 8.43999C61.4012 8.54639 61.4926 8.61759 61.4926 8.88319L61.4376 13.8248C61.4376 13.8248 62.874 11.9104 63.2402 10.0488C63.0973 9.94283 62.9802 9.80659 62.8974 9.65003C62.8146 9.49348 62.7682 9.32057 62.7616 9.14399C62.7972 8.61119 63.0688 7.97359 63.861 7.97359C64.6531 7.97359 64.7178 8.66799 64.6006 9.14159C64.6006 9.14159 65.2659 9.06159 65.843 8.90479C66.4202 8.74799 67.1929 8.66799 67.2479 9.56079C67.2685 9.75669 67.2312 9.95431 67.1404 10.1296C67.1404 10.1296 66.6829 12.1056 66.7548 12.904C66.8268 13.7024 67.0418 14.908 67.6739 14.7664C68.306 14.6248 68.521 13.7384 68.521 13.7384C68.3634 13.0101 68.3206 12.262 68.3941 11.5208C68.5614 9.95279 69.2704 8.11679 70.8983 8.11679C71.2137 8.12398 71.5212 8.21602 71.7878 8.38303C72.0544 8.55004 72.27 8.78572 72.4115 9.06479L72.4309 8.70959C72.4309 8.70959 72.3954 8.28319 73.08 8.38959C73.7647 8.49599 73.9991 8.76159 73.9797 8.97359L73.9247 13.3176C74.0161 14.2656 74.1785 14.8104 74.6619 14.772C75.1453 14.7336 75.5212 13.9784 75.7653 13.3504V13.1136L75.7799 8.50079C75.7867 8.42945 75.8184 8.36267 75.8693 8.31178C75.9203 8.26088 75.9875 8.22902 76.0595 8.22159L76.6197 8.30719C77.4038 8.42319 77.2947 8.71919 77.2947 8.71919V11.3256C77.8767 9.55599 78.1564 8.88079 78.4199 8.42959C78.6446 8.04559 79.3777 8.29679 79.3777 8.29679C79.3777 8.29679 80.178 8.50799 80.1861 9.24479C80.1618 10.448 80.3348 12.4072 80.3348 12.4072C80.3348 12.4072 80.3655 12.4472 80.3801 12.4336C80.3881 12.4209 80.3923 12.4062 80.3922 12.3912C80.6185 11.0574 81.0126 9.75693 81.5651 8.51999C81.8545 7.98239 82.6927 8.36399 82.6927 8.36399C83.6983 8.70479 83.5617 9.29519 83.5617 9.29519C83.265 14.3536 83.8971 14.6728 84.2706 14.7064C84.644 14.74 84.8405 14.2608 84.9213 14.0344C85.0021 13.808 85.1072 13.3096 85.1606 13.1128C85.1782 13.0569 85.2122 13.0075 85.2583 12.9708C85.3043 12.934 85.3603 12.9116 85.4192 12.9064C85.4795 12.9153 85.5352 12.9431 85.5783 12.9858C85.6214 13.0284 85.6495 13.0836 85.6585 13.1432L85.6528 13.1544ZM51.7271 9.27839C51.3755 9.29279 50.5469 9.51519 50.3982 11.7984C50.2495 14.0816 50.8606 14.6672 51.3747 14.7344C51.8888 14.8016 52.8111 13.9824 52.8539 11.5584C52.8967 9.13439 51.7271 9.27839 51.7271 9.27839ZM58.9455 9.27839C58.5866 9.29279 57.6861 9.60319 57.4824 11.8088C57.3313 14.116 57.961 14.7128 58.4734 14.7824C58.9859 14.852 59.9099 14.0224 59.9745 11.5648C60.0392 9.10719 58.9455 9.29039 58.9455 9.29039V9.27839ZM60.1418 16.3552C58.1024 18.0992 57.9254 19.3448 57.9254 19.3448C57.9254 19.3448 57.7233 20.3656 58.7054 20.4168C59.8856 20.5352 60.0844 19.116 60.1152 17.8744L60.1532 16.368L60.1418 16.3552ZM71.3373 9.35919C70.9856 9.37359 70.1571 9.59599 70.0084 11.8792C69.8596 14.1624 70.4707 14.748 70.9848 14.8152C71.4989 14.8824 72.4212 14.0632 72.4641 11.6392C72.5069 9.21519 71.3373 9.35919 71.3373 9.35919Z" fill="white"/>
<path d="M9.30574 5.31109C9.14222 5.31109 8.98048 5.31935 8.82112 5.3355C8.66176 5.35166 8.50461 5.37559 8.35014 5.40702C8.19567 5.43844 8.04394 5.47736 7.89525 5.52329L7.45882 5.68188L7.0433 5.88045L6.6512 6.11658L6.28483 6.38779L5.94675 6.69172L5.63936 7.02601L5.36503 7.38819L5.12614 7.7759L4.92538 8.18667C4.86504 8.32716 4.81136 8.4712 4.7649 8.61824C4.71843 8.76528 4.67911 8.91539 4.6473 9.06809C4.61549 9.22079 4.5913 9.37615 4.57492 9.53374C4.55854 9.69134 4.55032 9.85123 4.55032 10.0129C4.55032 10.1746 4.55866 10.3345 4.57492 10.4921C4.59109 10.6484 4.61525 10.8038 4.6473 10.9578C4.67911 11.1111 4.71843 11.2606 4.7649 11.4076C4.81136 11.5547 4.86498 11.6986 4.92538 11.8392L5.12614 12.2499L5.36503 12.6376L5.63936 12.9998L5.94675 13.3341L6.28483 13.6381L6.6512 13.9093L7.0433 14.1454L7.45882 14.344L7.89525 14.5026L8.35014 14.6188C8.50582 14.6505 8.66301 14.6744 8.82112 14.6904C8.98214 14.7067 9.14389 14.7148 9.30574 14.7148C9.46927 14.7148 9.63101 14.7065 9.7903 14.6904C9.94841 14.6744 10.1056 14.6505 10.2613 14.6188L10.7162 14.5026L11.1527 14.344L11.5681 14.1454L11.9603 13.9093L12.3267 13.6381L12.6648 13.3341L12.9722 12.9998L13.2465 12.6376L13.4854 12.2499L13.6862 11.8392L13.8466 11.4076C13.8931 11.2606 13.9324 11.1105 13.9642 10.9578L14.0366 10.492C14.0529 10.3344 14.0613 10.1745 14.0613 10.0128C14.0613 9.85117 14.0529 9.69128 14.0366 9.53368C14.0205 9.37736 13.9963 9.22194 13.9642 9.06803C13.9324 8.91474 13.8931 8.76528 13.8466 8.61818L13.6862 8.18661L13.4854 7.77584L13.2465 7.38813L12.9722 7.02595L12.6648 6.69166L12.3267 6.38773L11.9603 6.11652L11.5681 5.88039L11.1527 5.68182L10.7162 5.52323L10.2613 5.40696L9.7903 5.33544C9.62931 5.31917 9.46758 5.31102 9.30574 5.31104V5.31109ZM9.30574 6.93398C9.41387 6.93398 9.52056 6.93929 9.62565 6.94978L9.93542 6.99618L10.2347 7.07165L10.5212 7.17465L10.7936 7.30376L11.0498 7.45735L11.2893 7.63405L11.51 7.83227L11.7105 8.05053L11.8892 8.28731L12.0446 8.54118L12.175 8.81062C12.2142 8.90283 12.249 8.99734 12.2793 9.09397C12.3096 9.19061 12.335 9.28936 12.3556 9.38994C12.3761 9.49053 12.3913 9.59288 12.4024 9.69682L12.4184 10.0132C12.4184 10.1201 12.413 10.2256 12.4024 10.3296C12.3918 10.4336 12.3762 10.536 12.3556 10.6365C12.3349 10.737 12.3094 10.8358 12.2793 10.9325L12.175 11.2158L12.0446 11.4853L11.8892 11.7391L11.7105 11.9759L11.51 12.1942L11.2893 12.3924L11.0498 12.5691L10.7936 12.7227L10.5212 12.8518L10.2347 12.9548L9.93542 13.0303L9.62565 13.0766C9.51932 13.0871 9.41254 13.0924 9.30568 13.0924C9.19881 13.0924 9.092 13.0871 8.98566 13.0766L8.67588 13.0303C8.57419 13.0099 8.47435 12.9846 8.37659 12.9548L8.09005 12.8518L7.81762 12.7227L7.56146 12.5691L7.32198 12.3924L7.10121 12.1942L6.90074 11.9759L6.72203 11.7391L6.56666 11.4853L6.4362 11.2158L6.33195 10.9325L6.25569 10.6365L6.20881 10.3296C6.19815 10.2245 6.19282 10.1189 6.19285 10.0132C6.19282 9.90754 6.19815 9.80195 6.20881 9.69682C6.21936 9.59288 6.23502 9.49047 6.25569 9.38994C6.27616 9.29012 6.30163 9.19136 6.33201 9.09403L6.43626 8.81068L6.56672 8.54124L6.72209 8.28737L6.9008 8.05059L7.10127 7.83233L7.32204 7.63411L7.56152 7.45741L7.81768 7.30382L8.09011 7.17471C8.18387 7.13573 8.27953 7.10136 8.37671 7.07171L8.676 6.99624C8.77769 6.97584 8.88123 6.96027 8.98578 6.94984C9.09212 6.93929 9.19893 6.93402 9.3058 6.93404L9.30574 6.93398Z" fill="white"/>
<path d="M14.2541 3.97357C14.2163 3.97358 14.1786 3.97547 14.141 3.97923C14.1034 3.98299 14.0661 3.98862 14.0291 3.99609C13.9921 4.00356 13.9555 4.01287 13.9194 4.02398C13.8833 4.0351 13.8478 4.04801 13.8131 4.06266C13.7783 4.07733 13.7443 4.09372 13.7111 4.11177C13.678 4.12979 13.6458 4.14945 13.6146 4.17067C13.5835 4.19192 13.5534 4.2147 13.5245 4.23894C13.4956 4.26316 13.468 4.2888 13.4417 4.31577C13.4154 4.34275 13.3904 4.37102 13.367 4.40049C13.3435 4.42996 13.3215 4.46057 13.3011 4.49223C13.2808 4.52386 13.262 4.55648 13.2449 4.58998C13.2277 4.6235 13.2123 4.65786 13.1986 4.69292C13.1849 4.72798 13.173 4.76369 13.1629 4.79993C13.1528 4.83617 13.1445 4.87289 13.1381 4.90995C13.1317 4.947 13.1271 4.98435 13.1245 5.02185C13.1226 5.04842 13.1216 5.07504 13.1216 5.10168C13.1216 5.13931 13.1235 5.17691 13.1273 5.21435C13.131 5.25177 13.1367 5.28898 13.1442 5.32584C13.1517 5.3627 13.161 5.39916 13.1722 5.43509C13.1833 5.47103 13.1963 5.50639 13.211 5.54104C13.2257 5.57569 13.2422 5.6096 13.2603 5.64262C13.2784 5.67564 13.2981 5.70773 13.3194 5.73878C13.3408 5.76981 13.3636 5.79976 13.3879 5.82852C13.4123 5.85729 13.438 5.88484 13.4651 5.91106C13.4922 5.93726 13.5206 5.96209 13.5502 5.98546C13.5797 6.00885 13.6105 6.03075 13.6423 6.05108C13.674 6.07141 13.7068 6.09015 13.7405 6.10721C13.7741 6.12429 13.8086 6.13967 13.8438 6.15332C13.879 6.16694 13.9148 6.17881 13.9512 6.18887C13.9876 6.19891 14.0244 6.20714 14.0616 6.21351C14.0988 6.21992 14.1363 6.22446 14.174 6.22713C14.2007 6.22902 14.2274 6.22996 14.2541 6.22996C14.2919 6.22997 14.3296 6.22811 14.3672 6.22436C14.4048 6.2206 14.4421 6.21498 14.4791 6.2075C14.5161 6.20003 14.5527 6.19072 14.5888 6.17961C14.6249 6.16849 14.6604 6.15559 14.6951 6.14094C14.7299 6.12629 14.7639 6.10992 14.7971 6.09188C14.8302 6.07385 14.8624 6.05417 14.8936 6.03292C14.9247 6.0117 14.9548 5.98893 14.9837 5.96471C15.0126 5.94047 15.0402 5.91481 15.0665 5.88783C15.0928 5.86085 15.1178 5.83257 15.1412 5.80311C15.1647 5.77364 15.1867 5.74302 15.207 5.71137C15.2274 5.67972 15.2462 5.64707 15.2633 5.61355C15.2805 5.58003 15.2959 5.54567 15.3096 5.51061C15.3233 5.47556 15.3352 5.43984 15.3453 5.4036C15.3554 5.36737 15.3637 5.33065 15.3701 5.29359C15.3765 5.25654 15.3811 5.21919 15.3837 5.18169C15.3856 5.15512 15.3866 5.12849 15.3866 5.10186C15.3866 5.06425 15.3847 5.02667 15.3809 4.98925C15.3772 4.95182 15.3715 4.91461 15.364 4.87776C15.3565 4.8409 15.3472 4.80443 15.336 4.76851C15.3249 4.73257 15.3119 4.69721 15.2972 4.66256C15.2825 4.6279 15.266 4.59399 15.2479 4.56097C15.2298 4.52796 15.2101 4.49586 15.1888 4.46481C15.1674 4.43376 15.1445 4.40379 15.1202 4.37502C15.0959 4.34624 15.0702 4.31869 15.0431 4.29248C15.016 4.26628 14.9876 4.24145 14.958 4.21807C14.9285 4.1947 14.8977 4.17282 14.8659 4.15251C14.8342 4.13218 14.8014 4.11345 14.7677 4.09638C14.7341 4.07931 14.6996 4.06392 14.6644 4.05028C14.6292 4.03665 14.5934 4.02478 14.557 4.01472C14.5206 4.00466 14.4838 3.99642 14.4465 3.99002C14.4093 3.98364 14.3718 3.97911 14.3342 3.97646C14.3075 3.97458 14.2808 3.97363 14.2541 3.97363V3.97357Z" fill="white"/>
<path d="M8.40394 0.814594C7.88673 0.813769 7.42516 0.815891 7.01054 0.821669L5.89892 0.851148C5.5696 0.865298 5.27865 0.88375 5.01749 0.907629C4.8869 0.919538 4.76371 0.932863 4.64695 0.947543C4.53583 0.961403 4.42503 0.977542 4.31459 0.995949C4.20945 1.01364 4.10966 1.03274 4.01399 1.05349C3.91832 1.07424 3.82693 1.09665 3.73876 1.1207C3.65257 1.14423 3.56705 1.1701 3.4823 1.19829C3.39926 1.226 3.31824 1.25537 3.23824 1.28673C3.07823 1.34946 2.92215 1.41986 2.76142 1.49874C2.63775 1.55947 2.52349 1.62096 2.41495 1.68605C2.30641 1.75114 2.20358 1.81989 2.10291 1.89477C1.99922 1.97225 1.89929 2.05453 1.80344 2.14133C1.70323 2.23166 1.60089 2.331 1.49455 2.44202C1.36093 2.58075 1.24482 2.7101 1.14176 2.83704C1.09023 2.90048 1.04198 2.96321 0.996527 3.02629C0.951576 3.08846 0.908603 3.15201 0.867672 3.21685C0.827163 3.28111 0.788798 3.34656 0.752102 3.41389C0.714833 3.48238 0.67961 3.55194 0.64648 3.62248C0.578686 3.76657 0.51542 3.92175 0.452274 4.09497C0.405427 4.22303 0.363478 4.35279 0.326516 4.48398C0.288807 4.61805 0.255268 4.75831 0.225362 4.91001C0.195457 5.06171 0.169364 5.22485 0.146429 5.40526C0.121714 5.60302 0.101969 5.80136 0.0872139 6.00009C0.0705336 6.21859 0.0567129 6.45902 0.0453941 6.72663L0.0185866 7.61643L0.00417005 8.70109L0 10.0121L0.0122123 11.9187L0.0503386 13.3632L0.0797078 13.9274L0.116404 14.3949C0.128168 14.5209 0.142886 14.6467 0.160548 14.772C0.176632 14.8833 0.193908 14.9807 0.212495 15.065C0.250208 15.2364 0.294804 15.4063 0.346175 15.5742C0.395363 15.735 0.451613 15.8935 0.514765 16.0494C0.57684 16.2021 0.644752 16.3494 0.718622 16.4911C0.792492 16.6329 0.872319 16.769 0.958103 16.8999C1.04389 17.0307 1.13563 17.1562 1.23357 17.2763C1.33139 17.3964 1.43545 17.5114 1.54531 17.6208C1.65534 17.7305 1.77139 17.8348 1.89369 17.934C2.01744 18.0343 2.14607 18.1286 2.27912 18.2164C2.40261 18.2981 2.5248 18.373 2.64787 18.4416C2.77095 18.5103 2.8951 18.5726 3.0227 18.6293C3.15031 18.686 3.28113 18.737 3.41779 18.7828C3.55445 18.8287 3.69682 18.8695 3.8473 18.9057C3.99778 18.9419 4.15708 18.9737 4.32567 19.0014C4.49426 19.0291 4.67447 19.0529 4.86701 19.0733C5.05954 19.0938 5.26495 19.1107 5.48566 19.1248C5.70638 19.139 5.94229 19.1503 6.19577 19.1594C6.58734 19.1734 7.18008 19.1816 7.86362 19.1847L10.0764 19.1803L12.1718 19.1513L12.9686 19.1291L13.4876 19.1027C13.599 19.0937 13.708 19.0831 13.8132 19.0707C13.9184 19.0582 14.0222 19.044 14.1232 19.0279C14.2243 19.0117 14.3231 18.9937 14.4201 18.9736C14.516 18.9538 14.6114 18.9318 14.7063 18.9074C14.8002 18.8838 14.8927 18.857 14.9844 18.8285C15.076 18.8 15.1667 18.7693 15.2568 18.7363C15.3474 18.703 15.4373 18.6676 15.5262 18.6301C15.6157 18.5923 15.7051 18.552 15.7948 18.5092C15.9326 18.4435 16.0436 18.3888 16.141 18.3353C16.2326 18.2855 16.3208 18.2299 16.4051 18.1688C16.4883 18.1082 16.571 18.0392 16.6663 17.9523C16.7616 17.8654 16.8696 17.7607 17.0033 17.6282C17.1209 17.512 17.22 17.4109 17.3055 17.319C17.391 17.2271 17.463 17.1444 17.5261 17.0647C17.5863 16.989 17.6424 16.9103 17.6941 16.8287C17.7446 16.7491 17.7911 16.6665 17.8384 16.5748C17.9097 16.4368 17.9731 16.3091 18.0298 16.1858C18.085 16.067 18.1353 15.946 18.1808 15.8233C18.2256 15.7015 18.2644 15.5777 18.297 15.4522C18.3306 15.323 18.3596 15.1867 18.3846 15.0372C18.4096 14.8877 18.4307 14.725 18.4491 14.5433C18.4674 14.3615 18.4831 14.1607 18.4968 13.9351L18.5331 13.1777L18.5643 12.2357L18.5866 11.1862L18.5952 10.0889L18.5753 7.93368L18.5486 6.96836L18.5123 6.13953L18.467 5.49334C18.4506 5.31352 18.4328 5.1719 18.414 5.07616C18.3932 4.97036 18.3699 4.86505 18.3442 4.76032C18.3192 4.6584 18.2917 4.5571 18.2617 4.4565C18.2325 4.3585 18.2007 4.26124 18.1665 4.16484C18.1326 4.06962 18.0968 3.97641 18.0593 3.8852C18.0217 3.79399 17.9811 3.7049 17.9388 3.6177C17.8965 3.53051 17.8522 3.44543 17.8057 3.3623C17.7591 3.27917 17.7106 3.1981 17.6599 3.11904C17.6092 3.03997 17.5565 2.96291 17.5015 2.88792C17.4468 2.81316 17.3898 2.74012 17.3305 2.66889C17.2715 2.59805 17.2103 2.52908 17.1469 2.46206C17.0836 2.39514 17.0182 2.33021 16.9507 2.26738C16.8832 2.20453 16.8137 2.14369 16.742 2.08485C16.67 2.02581 16.5962 1.96901 16.5206 1.91452C16.4443 1.85947 16.3662 1.80674 16.2866 1.75639C16.2059 1.70533 16.1237 1.65665 16.0401 1.61041C15.955 1.5634 15.8686 1.51881 15.781 1.47669C15.6355 1.40671 15.501 1.34463 15.3689 1.28956C15.2391 1.23491 15.1067 1.18637 14.9723 1.14411C14.837 1.10196 14.6963 1.06581 14.5414 1.03463C14.3865 1.00344 14.2176 0.977436 14.0264 0.955327C13.8353 0.933218 13.6218 0.915354 13.3777 0.900496C13.1336 0.885639 12.859 0.873964 12.5455 0.864531L11.48 0.840948L10.1314 0.825206L8.40453 0.814711L8.40394 0.814594ZM9.3008 2.43606L11.7911 2.4501L12.7306 2.46802C12.9893 2.47521 13.1867 2.48364 13.3025 2.49337C13.4532 2.50593 13.5967 2.52167 13.7341 2.54054C13.8658 2.55855 13.997 2.58094 14.1272 2.60769C14.2523 2.63363 14.3717 2.66311 14.4859 2.69636C14.6001 2.72962 14.7091 2.76688 14.8138 2.80809C14.9185 2.8493 15.0186 2.89464 15.1149 2.94428C15.2104 2.99355 15.3033 3.04777 15.3931 3.10671C15.4824 3.16538 15.5686 3.22858 15.6522 3.29668C15.7359 3.36477 15.8169 3.43776 15.8961 3.51582C15.9797 3.59819 16.0568 3.68209 16.1279 3.76864C16.1987 3.85465 16.2642 3.9448 16.324 4.03861C16.3846 4.13375 16.4391 4.23249 16.4874 4.33428C16.5367 4.43805 16.581 4.54771 16.6208 4.66427C16.6606 4.78083 16.6961 4.9047 16.7275 5.03707C16.7603 5.17739 16.7879 5.31889 16.81 5.46127C16.8338 5.6122 16.8542 5.77316 16.8715 5.94549C16.8888 6.11783 16.9031 6.3016 16.9149 6.49823C16.9243 6.65594 16.9325 6.86406 16.9395 7.10986L16.9569 7.94795L16.9703 10.0009L16.9551 12.0519L16.9368 12.8875L16.9118 13.4953C16.8944 13.7799 16.876 14.0192 16.8541 14.2274C16.8431 14.3315 16.8312 14.4279 16.8179 14.5183C16.8056 14.6037 16.7909 14.6887 16.7739 14.7733C16.7584 14.8505 16.7404 14.9272 16.72 15.0033C16.7004 15.0758 16.6784 15.1477 16.6539 15.2189C16.6293 15.2903 16.6025 15.361 16.5736 15.4309C16.543 15.5046 16.5107 15.5777 16.4768 15.65C16.4466 15.7146 16.4148 15.7774 16.3812 15.8385C16.348 15.899 16.3127 15.9584 16.2754 16.0166C16.2385 16.0742 16.1998 16.1301 16.1593 16.1843C16.119 16.2383 16.0767 16.2909 16.0326 16.3418C15.9886 16.3926 15.9428 16.4418 15.8952 16.4892C15.8475 16.5367 15.7981 16.5825 15.7468 16.6267C15.6956 16.6709 15.6425 16.7134 15.5875 16.7543C15.5325 16.7952 15.4756 16.8345 15.4168 16.8721C15.358 16.9097 15.2974 16.9458 15.2347 16.9802C15.1721 17.0147 15.1076 17.0476 15.0411 17.0789C14.9736 17.1107 14.905 17.1404 14.8357 17.1681C14.764 17.1968 14.6914 17.2234 14.6182 17.248C14.4693 17.2983 14.3122 17.3424 14.1468 17.3804C13.9745 17.4198 13.8005 17.452 13.6255 17.477C13.5581 17.4867 13.4034 17.4958 13.1818 17.5043L12.3373 17.5275L9.94311 17.5583L7.43714 17.5622L6.453 17.5518L5.81397 17.5321L5.34275 17.4994C5.19644 17.4872 5.06038 17.4736 4.93289 17.4582C4.80541 17.4428 4.68668 17.4257 4.57498 17.4063C4.46913 17.3882 4.36393 17.3666 4.25955 17.3415C4.16437 17.3186 4.07017 17.2919 3.97717 17.2614C3.88752 17.2319 3.80179 17.1995 3.71839 17.1638C3.63499 17.1282 3.55397 17.0891 3.47373 17.0464C3.39348 17.0037 3.31407 16.9574 3.23377 16.9068C3.17318 16.8687 3.11462 16.8302 3.05827 16.7893C3.00191 16.7485 2.94746 16.7077 2.89504 16.665C2.84262 16.6224 2.79228 16.5784 2.74373 16.5331C2.6955 16.488 2.64892 16.4413 2.60409 16.3929C2.55941 16.3447 2.5167 16.295 2.47571 16.2436C2.43457 16.192 2.39536 16.1389 2.35817 16.0844C2.32044 16.0291 2.28473 15.9725 2.25112 15.9146C2.21717 15.8563 2.18488 15.7959 2.1542 15.7336C2.123 15.6702 2.0939 15.6057 2.06692 15.5404C2.03952 15.4739 2.01355 15.4053 1.98912 15.3344C1.94027 15.1926 1.89738 15.0417 1.86009 14.8807C1.8228 14.7198 1.79098 14.5488 1.76406 14.3666C1.73713 14.1844 1.71545 13.9913 1.69817 13.786C1.68542 13.6348 1.67529 13.3992 1.66755 13.1021L1.65135 12.0453L1.6573 9.35116L1.70419 6.77681L1.73993 5.86979L1.76019 5.56999C1.76722 5.48992 1.77448 5.43061 1.78193 5.395C1.80647 5.27785 1.8312 5.16884 1.85675 5.06678C1.88063 4.9705 1.90719 4.87489 1.9364 4.78007C1.96416 4.69057 1.99341 4.60673 2.02469 4.52731C2.05485 4.45038 2.08846 4.37482 2.12542 4.30085C2.16153 4.22892 2.20031 4.16006 2.24242 4.09303C2.28454 4.02599 2.33 3.96096 2.37956 3.89628C2.42912 3.8316 2.4825 3.76775 2.54058 3.70302C2.59867 3.63828 2.6614 3.5729 2.72943 3.50551C2.80872 3.42659 2.89127 3.35096 2.97689 3.27881C3.05774 3.21074 3.14204 3.14681 3.22948 3.08726C3.31544 3.0283 3.40361 2.97583 3.49541 2.9276C3.58721 2.87937 3.68265 2.8358 3.78303 2.79659C3.88341 2.75739 3.98885 2.72231 4.10055 2.69047C4.21789 2.65789 4.33654 2.6301 4.45619 2.60716C4.58201 2.58275 4.71563 2.56147 4.85831 2.5429C5.00098 2.52432 5.15277 2.50829 5.31505 2.49437C5.42824 2.4847 5.62328 2.4761 5.88009 2.46884L6.81478 2.45057L9.30122 2.43553L9.3008 2.43606Z" fill="white"/>
</svg>
