<svg width="149" height="35" viewBox="0 0 149 35" fill="none" xmlns="http://www.w3.org/2000/svg">
<path fill-rule="evenodd" clip-rule="evenodd" d="M9.04335 14.1138C15.79 11.809 16.9383 5.80489 16.0771 0.284564C16.0771 0.0853769 16.2493 -0.0568995 16.4216 1.10734e-05C22.8811 3.13009 30.1445 9.95936 30.1445 20.2033C30.1445 28.0569 24.0008 35 15.0723 35C11.8863 35.1436 8.74282 34.2315 6.13797 32.4076C3.53312 30.5838 1.61525 27.9521 0.687056 24.9278C-0.241137 21.9036 -0.126786 18.6592 1.01206 15.7065C2.15091 12.7539 4.24939 10.2612 6.9763 8.62196C7.14855 8.50814 7.37823 8.62196 7.37823 8.82115C7.46435 9.87399 7.75144 12.5203 8.92852 14.1138H9.04335Z" fill="url(#paint0_linear_1_11)"/>
<path fill-rule="evenodd" clip-rule="evenodd" d="M49.1499 28.7683L49.638 28.1992L51.1595 32.9797L50.9586 33.1789C49.8102 34.2317 48.0877 34.7724 45.8771 34.7724H45.7909C43.7813 34.7724 42.2023 34.2033 41.1114 33.1504C40.0204 32.0691 39.4462 30.4472 39.4462 28.3984V15.3659H35.5705V10.1017H39.4462V3.75612H45.4177V10.1017H50.1547V15.3659H45.389V27.1179C45.389 27.6586 45.5326 29.3943 47.1977 29.3943C48.059 29.3943 48.8628 29.0813 49.1499 28.7399V28.7683ZM52.3079 34.2317V10.1301H58.2794V34.2317H52.3079ZM55.2649 0.284576C55.9735 0.284599 56.6661 0.49251 57.2557 0.882105C57.8452 1.2717 58.3051 1.82554 58.5776 2.47383C58.85 3.12211 58.9227 3.83582 58.7866 4.52501C58.6504 5.21419 58.3115 5.84801 57.8125 6.34656C57.3134 6.84512 56.6767 7.18611 55.9825 7.32655C55.2882 7.46699 54.5676 7.4006 53.9114 7.13574C53.2552 6.87089 52.6928 6.41942 52.295 5.83824C51.8972 5.25707 51.682 4.57219 51.6763 3.86994C51.6763 1.93498 53.3127 0.284576 55.2649 0.284576ZM74.3277 9.53255C79.4954 9.53255 82.3376 12.3212 82.3376 17.4147V34.2033H76.3661V18.8374C76.2513 16.1057 74.9306 14.8537 72.1171 14.8537C69.5907 14.8537 67.5524 16.3903 66.5189 17.6992V34.2033H60.5474V10.1586H66.5189V12.7195C68.2414 11.0691 70.9975 9.58946 74.3277 9.58946V9.53255ZM102.204 12.6342V1.30897H108.176V34.2602H102.204V31.7561C101.29 32.7114 100.191 33.4735 98.9726 33.9968C97.754 34.52 96.4411 34.7935 95.1131 34.8008C88.5961 34.8008 84.2324 29.7358 84.2324 22.1951C84.2324 14.626 88.5961 9.561 95.1131 9.561C96.444 9.56702 97.7596 9.84275 98.9791 10.3712C100.199 10.8997 101.296 11.6698 102.204 12.6342ZM102.204 17.7277C101.539 16.8686 100.688 16.1674 99.7149 15.6751C98.7415 15.1829 97.6696 14.912 96.5773 14.8821C92.8738 14.8821 90.4048 17.813 90.4048 22.1951C90.4048 26.5488 92.8738 29.4797 96.5773 29.4797C98.7304 29.4797 101.085 28.3415 102.204 26.6911V17.7277ZM122.128 9.561C129.191 9.561 134.1 14.9675 134.1 22.6504V24.2724H116.042C116.645 27.6586 119.344 29.8212 123.018 29.8212C125.344 29.8212 127.899 28.8252 129.363 27.374L129.765 27.0325L132.607 31.0732L132.32 31.3293C129.63 33.6934 126.123 34.937 122.53 34.8008C115.066 34.8008 109.812 29.5935 109.812 22.1667C109.754 20.527 110.031 18.8926 110.626 17.3615C111.221 15.8305 112.122 14.4344 113.275 13.2571C114.428 12.0798 115.809 11.1455 117.335 10.5104C118.862 9.87525 120.502 9.55232 122.157 9.561H122.128ZM116.013 19.8049H128.272C127.928 16.1911 124.913 14.5407 122.128 14.5407C117.937 14.5407 116.358 17.6708 116.013 19.8334V19.8049ZM148.541 9.561H148.971V15.5366L148.455 15.4512C148.024 15.3659 147.478 15.309 146.933 15.309C145.009 15.309 142.34 16.6464 141.335 18.0691V34.2033H135.363V10.1301H141.363V12.8049C143.344 10.7561 145.957 9.561 148.541 9.561Z" fill="url(#paint1_linear_1_11)"/>
<defs>
<linearGradient id="paint0_linear_1_11" x1="30.1445" y1="-0.0126343" x2="-4.48045" y2="29.7207" gradientUnits="userSpaceOnUse">
<stop stop-color="#FF7854"/>
<stop offset="1" stop-color="#FD267D"/>
</linearGradient>
<linearGradient id="paint1_linear_1_11" x1="148.971" y1="0.284576" x2="129.731" y2="63.4793" gradientUnits="userSpaceOnUse">
<stop stop-color="#FF7854"/>
<stop offset="1" stop-color="#FD267D"/>
</linearGradient>
</defs>
</svg>
