<svg width="34" height="34" viewBox="0 0 34 34" fill="none" xmlns="http://www.w3.org/2000/svg">
<circle cx="17.5" cy="16.5" r="7.5" fill="white"/>
<path d="M30.6 15.1583L28.6167 12.8917C28.1917 12.4667 27.9083 11.6167 27.9083 11.05V8.78333C27.9083 7.225 26.6333 6.09166 25.2167 6.09166H22.8083C22.2417 6.09166 21.3917 5.80833 20.9667 5.38333L18.7 3.4C17.7083 2.55 16.15 2.55 15.1583 3.4L13.0333 5.38333C12.6083 5.80833 11.7583 6.09166 11.1917 6.09166H8.78333C7.225 6.09166 6.09167 7.36666 6.09167 8.78333V11.1917C6.09167 11.7583 5.80833 12.6083 5.38333 13.0333L3.54167 15.3C2.69167 16.2917 2.69167 17.85 3.54167 18.8417L5.38333 21.1083C5.80833 21.5333 6.09167 22.3833 6.09167 22.95V25.3583C6.09167 26.9167 7.36667 28.05 8.78333 28.05H11.1917C11.7583 28.05 12.6083 28.3333 13.0333 28.7583L15.3 30.7417C16.2917 31.5917 17.85 31.5917 18.8417 30.7417L21.1083 28.7583C21.5333 28.3333 22.3833 28.05 22.95 28.05H25.3583C26.9167 28.05 28.05 26.775 28.05 25.3583V22.95C28.05 22.3833 28.3333 21.5333 28.7583 21.1083L30.7417 18.8417C31.45 17.85 31.45 16.15 30.6 15.1583ZM22.95 14.3083L16.15 21.1083C16.0083 21.25 15.725 21.3917 15.4417 21.3917C15.1583 21.3917 14.875 21.25 14.7333 21.1083L11.3333 17.7083C10.9083 17.2833 10.9083 16.575 11.3333 16.15C11.7583 15.725 12.4667 15.725 12.8917 16.15L15.5833 18.8417L21.3917 12.75C21.8167 12.325 22.525 12.325 22.95 12.75C23.375 13.175 23.375 13.8833 22.95 14.3083Z" fill="#4698F6"/>
</svg>
